{
    "asset" : {
        "generator" : "Khronos glTF Blender I/O v3.4.50",
        "version" : "2.0"
    },
    "extensionsUsed" : [
        "KHR_materials_specular",
        "KHR_materials_ior"
    ],
    "scene" : 0,
    "scenes" : [
        {
            "name" : "Scene",
            "nodes" : [
                0
            ]
        }
    ],
    "nodes" : [
        {
            "mesh" : 0,
            "name" : "planet"
        }
    ],
    "materials" : [
        {
            "doubleSided" : true,
            "extensions" : {
                "KHR_materials_specular" : {
                    "specularColorFactor" : [
                        0.20479908340603953,
                        0.20479908340603953,
                        0.20479908340603953
                    ]
                },
                "KHR_materials_ior" : {
                    "ior" : 1.4500000476837158
                }
            },
            "name" : "Material",
            "pbrMetallicRoughness" : {
                "baseColorFactor" : [
                    0.0251868087798357,
                    0.04091516509652138,
                    0.04373503476381302,
                    1
                ],
                "metallicFactor" : 0,
                "roughnessFactor" : 0.7545454502105713
            }
        }
    ],
    "meshes" : [
        {
            "name" : "planet",
            "primitives" : [
                {
                    "attributes" : {
                        "POSITION" : 0,
                        "TEXCOORD_0" : 1,
                        "NORMAL" : 2
                    },
                    "indices" : 3,
                    "material" : 0
                }
            ]
        }
    ],
    "accessors" : [
        {
            "bufferView" : 0,
            "componentType" : 5126,
            "count" : 33912,
            "max" : [
                1.9393295049667358,
                1.9953031539916992,
                1.9797587394714355
            ],
            "min" : [
                -1.988512396812439,
                -1.9996734857559204,
                -1.9613502025604248
            ],
            "type" : "VEC3"
        },
        {
            "bufferView" : 1,
            "componentType" : 5126,
            "count" : 33912,
            "type" : "VEC2"
        },
        {
            "bufferView" : 2,
            "componentType" : 5126,
            "count" : 33912,
            "type" : "VEC3"
        },
        {
            "bufferView" : 3,
            "componentType" : 5123,
            "count" : 97536,
            "type" : "SCALAR"
        }
    ],
    "bufferViews" : [
        {
            "buffer" : 0,
            "byteLength" : 406944,
            "byteOffset" : 0,
            "target" : 34962
        },
        {
            "buffer" : 0,
            "byteLength" : 271296,
            "byteOffset" : 406944,
            "target" : 34962
        },
        {
            "buffer" : 0,
            "byteLength" : 406944,
            "byteOffset" : 678240,
            "target" : 34962
        },
        {
            "buffer" : 0,
            "byteLength" : 195072,
            "byteOffset" : 1085184,
            "target" : 34963
        }
    ],
    "buffers" : [
        {
            "byteLength" : 1280256,
            "uri" : "data:application/octet-stream;base64,"
        }
    ]
}
